<svg width="360" height="274" viewBox="0 0 360 274" fill="none" xmlns="http://www.w3.org/2000/svg">
<g filter="url(#filter0_d_40_3)">
<mask id="path-1-outside-1_40_3" maskUnits="userSpaceOnUse" x="26.4105" y="32.5439" width="308" height="209" fill="black">
<rect fill="white" x="26.4105" y="32.5439" width="308" height="209"/>
<path d="M103.267 128.856C98.6585 128.856 95.4585 126.424 93.9225 122.712L88.1625 109.272H53.6025L47.9705 122.712C46.4345 126.424 43.2345 128.856 38.6265 128.856C33.5065 128.856 29.4105 124.888 29.4105 120.152C29.4105 118.232 29.9225 116.184 30.6905 114.648L61.5385 45.1439C63.7145 40.2799 66.6585 37.9759 70.8825 37.9759C75.2345 37.9759 78.1785 40.2799 80.2265 45.1439L111.203 114.648C111.971 116.184 112.483 118.232 112.483 120.152C112.483 124.888 108.259 128.856 103.267 128.856ZM60.0025 94.1679H81.7625L70.8825 68.4399L60.0025 94.1679Z"/>
<path d="M134.339 119.64C134.339 124.76 130.115 128.856 124.995 128.856C119.875 128.856 115.651 124.76 115.651 119.64V46.1679C115.651 41.0479 119.875 36.8239 124.995 36.8239C130.115 36.8239 134.339 41.0479 134.339 46.1679V119.64Z"/>
<path d="M150.163 61.2719C155.283 61.2719 159.507 65.4959 159.507 70.7439V119.512C159.507 124.76 155.283 128.984 150.163 128.984C145.043 128.984 140.819 124.76 140.819 119.512V70.7439C140.819 65.4959 145.043 61.2719 150.163 61.2719ZM140.691 44.7599C140.691 39.7679 145.043 35.5439 150.163 35.5439C155.283 35.5439 159.635 39.7679 159.635 44.7599C159.635 49.7519 155.283 53.9759 150.163 53.9759C145.043 53.9759 140.691 49.7519 140.691 44.7599Z"/>
<path d="M197.341 60.8879C211.933 60.8879 229.597 72.5359 229.597 91.9919C229.597 99.4159 225.629 101.976 217.949 101.976L182.877 101.464C184.541 109.4 190.813 113.752 199.645 113.752C203.869 113.752 205.149 113.112 208.861 111.832C211.421 110.808 213.341 109.656 215.773 109.656C219.613 109.656 222.045 112.472 222.045 116.056C222.045 118.36 221.149 120.92 217.565 123.736C213.085 126.68 206.941 128.856 198.877 128.856C181.597 128.856 163.421 118.488 163.421 95.1919C163.421 71.8959 182.749 60.8879 197.341 60.8879ZM182.877 88.9199H211.165C209.885 80.4719 203.997 77.1439 197.341 77.1439C190.685 77.1439 184.029 80.4719 182.877 88.9199Z"/>
<path d="M272.21 61.0159C285.266 61.0159 296.146 69.8479 296.146 92.1199V119.64C296.146 124.76 291.922 128.856 286.802 128.856C281.81 128.856 277.458 124.76 277.458 119.64V92.1199C277.458 81.4959 272.21 76.8879 265.17 76.8879C254.162 76.8879 251.09 87.6399 250.834 90.0719V119.64C250.834 124.76 246.61 128.856 241.49 128.856C236.37 128.856 232.146 124.76 232.146 119.64V70.7439C232.146 65.4959 236.37 61.2719 241.49 61.2719C246.61 61.2719 250.834 65.4959 250.834 70.7439V75.8639C251.346 71.1279 258.642 61.0159 272.21 61.0159Z"/>
<path d="M85.9865 195.448C90.5945 195.448 94.4345 199.16 94.4345 203.768C94.4345 208.504 90.5945 212.216 85.9865 212.216H43.2345C37.0905 212.216 32.6105 207.736 32.6105 201.592V133.24C32.6105 127.096 37.0905 122.616 43.2345 122.616H84.7065C89.3145 122.616 93.1545 126.328 93.1545 130.936C93.1545 135.672 89.3145 139.384 84.7065 139.384H51.8105V159.224H72.8025C77.4105 159.224 81.2505 162.936 81.2505 167.16C81.2505 171.512 77.4105 175.352 72.8025 175.352H51.8105V195.448H85.9865Z"/>
<path d="M137.715 145.016C147.187 145.016 155.507 149.752 159.347 160.76C162.931 152.952 170.995 145.016 183.027 145.016C196.083 145.016 207.091 153.848 207.091 176.12V203.64C207.091 208.76 202.739 212.856 197.747 212.856C192.627 212.856 188.403 208.76 188.403 203.64V176.12C188.403 165.496 183.155 160.888 175.987 160.888C165.107 160.888 161.907 171.64 161.651 173.944V203.64C161.651 208.76 157.427 212.856 152.307 212.856C147.315 212.856 142.963 208.76 142.963 203.64V176.12C142.963 165.496 137.715 160.888 130.675 160.888C119.667 160.888 116.595 171.64 116.339 174.072V203.64C116.339 208.76 112.115 212.856 106.995 212.856C101.875 212.856 97.6505 208.76 97.6505 203.64V154.744C97.6505 149.496 101.875 145.272 106.995 145.272C112.115 145.272 116.339 149.496 116.339 154.744V159.864C116.851 155.128 124.147 145.016 137.715 145.016Z"/>
<path d="M245.313 144.888C259.905 144.888 279.745 156.408 279.745 179.192C279.745 202.104 259.905 213.112 245.313 213.112C230.593 213.112 210.881 202.104 210.881 179.192C210.881 156.408 230.593 144.888 245.313 144.888ZM229.313 179.192C229.313 189.944 236.737 196.856 245.313 196.856C253.761 196.856 261.185 189.944 261.185 179.192C261.185 168.056 253.761 161.144 245.313 161.144C236.737 161.144 229.313 168.056 229.313 179.192Z"/>
<path d="M295.796 145.272C300.916 145.272 305.14 149.496 305.14 154.872V218.36C305.14 231.032 297.076 238.456 284.66 238.456C281.588 238.456 278.004 238.072 274.164 236.408C271.092 234.872 266.996 231.8 266.996 226.936C266.996 221.432 271.86 217.08 277.492 218.744C278.644 218.872 279.796 220.152 282.1 220.152C286.58 220.152 286.452 215.416 286.452 212.984V154.872C286.452 149.496 290.804 145.272 295.796 145.272ZM286.324 128.76C286.324 123.768 290.804 119.544 295.796 119.544C300.916 119.544 305.268 123.768 305.268 128.76C305.268 133.752 300.916 137.976 295.796 137.976C290.804 137.976 286.324 133.752 286.324 128.76Z"/>
<path d="M321.118 145.272C326.238 145.272 330.462 149.496 330.462 154.744V203.512C330.462 208.76 326.238 212.984 321.118 212.984C315.998 212.984 311.774 208.76 311.774 203.512V154.744C311.774 149.496 315.998 145.272 321.118 145.272ZM311.646 128.76C311.646 123.768 315.998 119.544 321.118 119.544C326.238 119.544 330.59 123.768 330.59 128.76C330.59 133.752 326.238 137.976 321.118 137.976C315.998 137.976 311.646 133.752 311.646 128.76Z"/>
</mask>
<path d="M103.267 128.856C98.6585 128.856 95.4585 126.424 93.9225 122.712L88.1625 109.272H53.6025L47.9705 122.712C46.4345 126.424 43.2345 128.856 38.6265 128.856C33.5065 128.856 29.4105 124.888 29.4105 120.152C29.4105 118.232 29.9225 116.184 30.6905 114.648L61.5385 45.1439C63.7145 40.2799 66.6585 37.9759 70.8825 37.9759C75.2345 37.9759 78.1785 40.2799 80.2265 45.1439L111.203 114.648C111.971 116.184 112.483 118.232 112.483 120.152C112.483 124.888 108.259 128.856 103.267 128.856ZM60.0025 94.1679H81.7625L70.8825 68.4399L60.0025 94.1679Z" fill="white"/>
<path d="M134.339 119.64C134.339 124.76 130.115 128.856 124.995 128.856C119.875 128.856 115.651 124.76 115.651 119.64V46.1679C115.651 41.0479 119.875 36.8239 124.995 36.8239C130.115 36.8239 134.339 41.0479 134.339 46.1679V119.64Z" fill="white"/>
<path d="M150.163 61.2719C155.283 61.2719 159.507 65.4959 159.507 70.7439V119.512C159.507 124.76 155.283 128.984 150.163 128.984C145.043 128.984 140.819 124.76 140.819 119.512V70.7439C140.819 65.4959 145.043 61.2719 150.163 61.2719ZM140.691 44.7599C140.691 39.7679 145.043 35.5439 150.163 35.5439C155.283 35.5439 159.635 39.7679 159.635 44.7599C159.635 49.7519 155.283 53.9759 150.163 53.9759C145.043 53.9759 140.691 49.7519 140.691 44.7599Z" fill="white"/>
<path d="M197.341 60.8879C211.933 60.8879 229.597 72.5359 229.597 91.9919C229.597 99.4159 225.629 101.976 217.949 101.976L182.877 101.464C184.541 109.4 190.813 113.752 199.645 113.752C203.869 113.752 205.149 113.112 208.861 111.832C211.421 110.808 213.341 109.656 215.773 109.656C219.613 109.656 222.045 112.472 222.045 116.056C222.045 118.36 221.149 120.92 217.565 123.736C213.085 126.68 206.941 128.856 198.877 128.856C181.597 128.856 163.421 118.488 163.421 95.1919C163.421 71.8959 182.749 60.8879 197.341 60.8879ZM182.877 88.9199H211.165C209.885 80.4719 203.997 77.1439 197.341 77.1439C190.685 77.1439 184.029 80.4719 182.877 88.9199Z" fill="white"/>
<path d="M272.21 61.0159C285.266 61.0159 296.146 69.8479 296.146 92.1199V119.64C296.146 124.76 291.922 128.856 286.802 128.856C281.81 128.856 277.458 124.76 277.458 119.64V92.1199C277.458 81.4959 272.21 76.8879 265.17 76.8879C254.162 76.8879 251.09 87.6399 250.834 90.0719V119.64C250.834 124.76 246.61 128.856 241.49 128.856C236.37 128.856 232.146 124.76 232.146 119.64V70.7439C232.146 65.4959 236.37 61.2719 241.49 61.2719C246.61 61.2719 250.834 65.4959 250.834 70.7439V75.8639C251.346 71.1279 258.642 61.0159 272.21 61.0159Z" fill="white"/>
<path d="M85.9865 195.448C90.5945 195.448 94.4345 199.16 94.4345 203.768C94.4345 208.504 90.5945 212.216 85.9865 212.216H43.2345C37.0905 212.216 32.6105 207.736 32.6105 201.592V133.24C32.6105 127.096 37.0905 122.616 43.2345 122.616H84.7065C89.3145 122.616 93.1545 126.328 93.1545 130.936C93.1545 135.672 89.3145 139.384 84.7065 139.384H51.8105V159.224H72.8025C77.4105 159.224 81.2505 162.936 81.2505 167.16C81.2505 171.512 77.4105 175.352 72.8025 175.352H51.8105V195.448H85.9865Z" fill="white"/>
<path d="M137.715 145.016C147.187 145.016 155.507 149.752 159.347 160.76C162.931 152.952 170.995 145.016 183.027 145.016C196.083 145.016 207.091 153.848 207.091 176.12V203.64C207.091 208.76 202.739 212.856 197.747 212.856C192.627 212.856 188.403 208.76 188.403 203.64V176.12C188.403 165.496 183.155 160.888 175.987 160.888C165.107 160.888 161.907 171.64 161.651 173.944V203.64C161.651 208.76 157.427 212.856 152.307 212.856C147.315 212.856 142.963 208.76 142.963 203.64V176.12C142.963 165.496 137.715 160.888 130.675 160.888C119.667 160.888 116.595 171.64 116.339 174.072V203.64C116.339 208.76 112.115 212.856 106.995 212.856C101.875 212.856 97.6505 208.76 97.6505 203.64V154.744C97.6505 149.496 101.875 145.272 106.995 145.272C112.115 145.272 116.339 149.496 116.339 154.744V159.864C116.851 155.128 124.147 145.016 137.715 145.016Z" fill="white"/>
<path d="M245.313 144.888C259.905 144.888 279.745 156.408 279.745 179.192C279.745 202.104 259.905 213.112 245.313 213.112C230.593 213.112 210.881 202.104 210.881 179.192C210.881 156.408 230.593 144.888 245.313 144.888ZM229.313 179.192C229.313 189.944 236.737 196.856 245.313 196.856C253.761 196.856 261.185 189.944 261.185 179.192C261.185 168.056 253.761 161.144 245.313 161.144C236.737 161.144 229.313 168.056 229.313 179.192Z" fill="white"/>
<path d="M295.796 145.272C300.916 145.272 305.14 149.496 305.14 154.872V218.36C305.14 231.032 297.076 238.456 284.66 238.456C281.588 238.456 278.004 238.072 274.164 236.408C271.092 234.872 266.996 231.8 266.996 226.936C266.996 221.432 271.86 217.08 277.492 218.744C278.644 218.872 279.796 220.152 282.1 220.152C286.58 220.152 286.452 215.416 286.452 212.984V154.872C286.452 149.496 290.804 145.272 295.796 145.272ZM286.324 128.76C286.324 123.768 290.804 119.544 295.796 119.544C300.916 119.544 305.268 123.768 305.268 128.76C305.268 133.752 300.916 137.976 295.796 137.976C290.804 137.976 286.324 133.752 286.324 128.76Z" fill="white"/>
<path d="M321.118 145.272C326.238 145.272 330.462 149.496 330.462 154.744V203.512C330.462 208.76 326.238 212.984 321.118 212.984C315.998 212.984 311.774 208.76 311.774 203.512V154.744C311.774 149.496 315.998 145.272 321.118 145.272ZM311.646 128.76C311.646 123.768 315.998 119.544 321.118 119.544C326.238 119.544 330.59 123.768 330.59 128.76C330.59 133.752 326.238 137.976 321.118 137.976C315.998 137.976 311.646 133.752 311.646 128.76Z" fill="white"/>
<path d="M103.267 128.856C98.6585 128.856 95.4585 126.424 93.9225 122.712L88.1625 109.272H53.6025L47.9705 122.712C46.4345 126.424 43.2345 128.856 38.6265 128.856C33.5065 128.856 29.4105 124.888 29.4105 120.152C29.4105 118.232 29.9225 116.184 30.6905 114.648L61.5385 45.1439C63.7145 40.2799 66.6585 37.9759 70.8825 37.9759C75.2345 37.9759 78.1785 40.2799 80.2265 45.1439L111.203 114.648C111.971 116.184 112.483 118.232 112.483 120.152C112.483 124.888 108.259 128.856 103.267 128.856ZM60.0025 94.1679H81.7625L70.8825 68.4399L60.0025 94.1679Z" stroke="#C3C3C3" stroke-width="6" mask="url(#path-1-outside-1_40_3)"/>
<path d="M134.339 119.64C134.339 124.76 130.115 128.856 124.995 128.856C119.875 128.856 115.651 124.76 115.651 119.64V46.1679C115.651 41.0479 119.875 36.8239 124.995 36.8239C130.115 36.8239 134.339 41.0479 134.339 46.1679V119.64Z" stroke="#C3C3C3" stroke-width="6" mask="url(#path-1-outside-1_40_3)"/>
<path d="M150.163 61.2719C155.283 61.2719 159.507 65.4959 159.507 70.7439V119.512C159.507 124.76 155.283 128.984 150.163 128.984C145.043 128.984 140.819 124.76 140.819 119.512V70.7439C140.819 65.4959 145.043 61.2719 150.163 61.2719ZM140.691 44.7599C140.691 39.7679 145.043 35.5439 150.163 35.5439C155.283 35.5439 159.635 39.7679 159.635 44.7599C159.635 49.7519 155.283 53.9759 150.163 53.9759C145.043 53.9759 140.691 49.7519 140.691 44.7599Z" stroke="#C3C3C3" stroke-width="6" mask="url(#path-1-outside-1_40_3)"/>
<path d="M197.341 60.8879C211.933 60.8879 229.597 72.5359 229.597 91.9919C229.597 99.4159 225.629 101.976 217.949 101.976L182.877 101.464C184.541 109.4 190.813 113.752 199.645 113.752C203.869 113.752 205.149 113.112 208.861 111.832C211.421 110.808 213.341 109.656 215.773 109.656C219.613 109.656 222.045 112.472 222.045 116.056C222.045 118.36 221.149 120.92 217.565 123.736C213.085 126.68 206.941 128.856 198.877 128.856C181.597 128.856 163.421 118.488 163.421 95.1919C163.421 71.8959 182.749 60.8879 197.341 60.8879ZM182.877 88.9199H211.165C209.885 80.4719 203.997 77.1439 197.341 77.1439C190.685 77.1439 184.029 80.4719 182.877 88.9199Z" stroke="#C3C3C3" stroke-width="6" mask="url(#path-1-outside-1_40_3)"/>
<path d="M272.21 61.0159C285.266 61.0159 296.146 69.8479 296.146 92.1199V119.64C296.146 124.76 291.922 128.856 286.802 128.856C281.81 128.856 277.458 124.76 277.458 119.64V92.1199C277.458 81.4959 272.21 76.8879 265.17 76.8879C254.162 76.8879 251.09 87.6399 250.834 90.0719V119.64C250.834 124.76 246.61 128.856 241.49 128.856C236.37 128.856 232.146 124.76 232.146 119.64V70.7439C232.146 65.4959 236.37 61.2719 241.49 61.2719C246.61 61.2719 250.834 65.4959 250.834 70.7439V75.8639C251.346 71.1279 258.642 61.0159 272.21 61.0159Z" stroke="#C3C3C3" stroke-width="6" mask="url(#path-1-outside-1_40_3)"/>
<path d="M85.9865 195.448C90.5945 195.448 94.4345 199.16 94.4345 203.768C94.4345 208.504 90.5945 212.216 85.9865 212.216H43.2345C37.0905 212.216 32.6105 207.736 32.6105 201.592V133.24C32.6105 127.096 37.0905 122.616 43.2345 122.616H84.7065C89.3145 122.616 93.1545 126.328 93.1545 130.936C93.1545 135.672 89.3145 139.384 84.7065 139.384H51.8105V159.224H72.8025C77.4105 159.224 81.2505 162.936 81.2505 167.16C81.2505 171.512 77.4105 175.352 72.8025 175.352H51.8105V195.448H85.9865Z" stroke="#C3C3C3" stroke-width="6" mask="url(#path-1-outside-1_40_3)"/>
<path d="M137.715 145.016C147.187 145.016 155.507 149.752 159.347 160.76C162.931 152.952 170.995 145.016 183.027 145.016C196.083 145.016 207.091 153.848 207.091 176.12V203.64C207.091 208.76 202.739 212.856 197.747 212.856C192.627 212.856 188.403 208.76 188.403 203.64V176.12C188.403 165.496 183.155 160.888 175.987 160.888C165.107 160.888 161.907 171.64 161.651 173.944V203.64C161.651 208.76 157.427 212.856 152.307 212.856C147.315 212.856 142.963 208.76 142.963 203.64V176.12C142.963 165.496 137.715 160.888 130.675 160.888C119.667 160.888 116.595 171.64 116.339 174.072V203.64C116.339 208.76 112.115 212.856 106.995 212.856C101.875 212.856 97.6505 208.76 97.6505 203.64V154.744C97.6505 149.496 101.875 145.272 106.995 145.272C112.115 145.272 116.339 149.496 116.339 154.744V159.864C116.851 155.128 124.147 145.016 137.715 145.016Z" stroke="#C3C3C3" stroke-width="6" mask="url(#path-1-outside-1_40_3)"/>
<path d="M245.313 144.888C259.905 144.888 279.745 156.408 279.745 179.192C279.745 202.104 259.905 213.112 245.313 213.112C230.593 213.112 210.881 202.104 210.881 179.192C210.881 156.408 230.593 144.888 245.313 144.888ZM229.313 179.192C229.313 189.944 236.737 196.856 245.313 196.856C253.761 196.856 261.185 189.944 261.185 179.192C261.185 168.056 253.761 161.144 245.313 161.144C236.737 161.144 229.313 168.056 229.313 179.192Z" stroke="#C3C3C3" stroke-width="6" mask="url(#path-1-outside-1_40_3)"/>
<path d="M295.796 145.272C300.916 145.272 305.14 149.496 305.14 154.872V218.36C305.14 231.032 297.076 238.456 284.66 238.456C281.588 238.456 278.004 238.072 274.164 236.408C271.092 234.872 266.996 231.8 266.996 226.936C266.996 221.432 271.86 217.08 277.492 218.744C278.644 218.872 279.796 220.152 282.1 220.152C286.58 220.152 286.452 215.416 286.452 212.984V154.872C286.452 149.496 290.804 145.272 295.796 145.272ZM286.324 128.76C286.324 123.768 290.804 119.544 295.796 119.544C300.916 119.544 305.268 123.768 305.268 128.76C305.268 133.752 300.916 137.976 295.796 137.976C290.804 137.976 286.324 133.752 286.324 128.76Z" stroke="#C3C3C3" stroke-width="6" mask="url(#path-1-outside-1_40_3)"/>
<path d="M321.118 145.272C326.238 145.272 330.462 149.496 330.462 154.744V203.512C330.462 208.76 326.238 212.984 321.118 212.984C315.998 212.984 311.774 208.76 311.774 203.512V154.744C311.774 149.496 315.998 145.272 321.118 145.272ZM311.646 128.76C311.646 123.768 315.998 119.544 321.118 119.544C326.238 119.544 330.59 123.768 330.59 128.76C330.59 133.752 326.238 137.976 321.118 137.976C315.998 137.976 311.646 133.752 311.646 128.76Z" stroke="#C3C3C3" stroke-width="6" mask="url(#path-1-outside-1_40_3)"/>
</g>
<defs>
<filter id="filter0_d_40_3" x="21.4105" y="32.5439" width="312.179" height="209.912" filterUnits="userSpaceOnUse" color-interpolation-filters="sRGB">
<feFlood flood-opacity="0" result="BackgroundImageFix"/>
<feColorMatrix in="SourceAlpha" type="matrix" values="0 0 0 0 0 0 0 0 0 0 0 0 0 0 0 0 0 0 127 0" result="hardAlpha"/>
<feOffset dx="-5" dy="1"/>
<feComposite in2="hardAlpha" operator="out"/>
<feColorMatrix type="matrix" values="0 0 0 0 0.8 0 0 0 0 1 0 0 0 0 0 0 0 0 1 0"/>
<feBlend mode="normal" in2="BackgroundImageFix" result="effect1_dropShadow_40_3"/>
<feBlend mode="normal" in="SourceGraphic" in2="effect1_dropShadow_40_3" result="shape"/>
</filter>
</defs>
</svg>
