<svg width="238" height="37" viewBox="0 0 238 37" fill="none" xmlns="http://www.w3.org/2000/svg">
<path d="M112.94 4.41835C113.586 4.32672 114.895 4.31091 115.533 4.3871C120.14 4.93707 123.866 8.64123 124.743 13.5434C124.869 14.2508 124.869 16.0791 124.742 16.8734C124.412 18.9323 123.537 20.955 122.139 22.8978C120.14 25.6766 117.831 27.3684 115.456 27.7953C114.859 27.9024 113.581 27.872 112.989 27.7367C110.689 27.211 108.524 25.5665 106.607 22.8891C104.754 20.301 103.794 17.4201 103.907 14.7846C104.02 12.1476 105.076 9.64954 106.929 7.6371C108.578 5.84674 110.637 4.74519 112.94 4.41835ZM114.425 23.891C112.518 23.8908 111.683 22.747 111.398 23.143C111.113 23.5391 112.518 24.4953 114.425 24.4955C116.333 24.4955 117.722 23.5438 117.355 23.143C117.032 22.7901 116.333 23.891 114.425 23.891ZM113.143 0.735735C115.361 0.531924 117.888 0.95132 120.089 1.88808C122.871 3.07177 125.219 5.22074 126.515 7.76991C127.163 9.04387 127.759 10.9961 127.871 12.2113C127.89 12.4216 127.92 12.6161 127.938 12.6439C127.956 12.671 128.086 12.7627 128.225 12.8471C129.023 13.3293 129.583 14.2865 129.781 15.5053C129.852 15.9401 129.855 16.1068 129.805 16.5756C129.555 18.934 127.718 20.6156 125.39 20.6156C124.85 20.6156 124.608 20.5388 124.473 20.3236C124.388 20.1872 124.392 20.167 124.645 19.4994C125.166 18.126 125.356 17.138 125.411 15.5326C125.445 14.5103 125.394 13.9184 125.185 12.9184C125.059 12.3169 125.057 12.2819 125.141 12.1478C125.256 11.9641 125.515 11.8549 125.837 11.8549H125.859C125.963 11.855 126.028 11.855 126.061 11.8207C126.117 11.7625 126.081 11.6057 125.983 11.183L125.97 11.1293C125.32 8.32956 123.586 5.92001 121.112 4.37538C118.569 2.78805 115.353 2.18765 112.116 2.6957C109.851 3.05125 107.654 4.11703 105.943 5.69081C104.34 7.16496 103.162 9.24716 102.713 11.3969L102.617 11.8549H102.896C103.231 11.8549 103.494 11.9601 103.606 12.1391C103.683 12.2619 103.68 12.3178 103.562 12.9369C103.357 14.012 103.308 14.589 103.343 15.4799C103.404 17.0108 103.665 18.2455 104.282 19.9271C104.36 20.1406 104.364 20.2004 104.308 20.31C104.193 20.534 103.944 20.6156 103.374 20.6156C101.294 20.6156 99.5688 19.2915 99.0514 17.2982C98.91 16.7536 98.8978 15.7157 99.027 15.1605C99.2308 14.2846 99.8954 13.2968 100.535 12.9193C100.824 12.7484 100.832 12.7334 100.886 12.2152C100.937 11.7264 101.152 10.6975 101.327 10.1088C102.314 6.7835 104.305 4.25871 107.313 2.51698C108.988 1.54729 110.999 0.932803 113.143 0.735735ZM109.262 13.6283C108.438 13.2863 107.341 13.1489 106.86 13.3285C106.253 13.5549 105.986 14.0409 105.982 14.9184C105.974 16.9934 107.723 19.3382 109.828 20.0717C111.672 20.7145 112.855 20.1836 112.926 18.681C113.017 16.7673 111.377 14.5055 109.262 13.6283ZM121.32 13.267C120.939 13.2579 120.642 13.2844 120.331 13.3549C118.864 13.6878 117.399 14.7885 116.554 16.1928C115.927 17.2349 115.661 18.4912 115.902 19.2709C116.016 19.641 116.352 20.0275 116.701 20.1898C116.937 20.3001 117.048 20.3159 117.563 20.3119C118.505 20.3045 119.284 20.0351 120.188 19.4057C121.568 18.4447 122.561 16.8642 122.758 15.31C122.871 14.4233 122.653 13.7879 122.117 13.4428C121.883 13.2923 121.825 13.2791 121.32 13.267Z" fill="white"/>
<path d="M22.7141 28.5208C21.225 28.5208 20.1558 27.7189 19.6595 26.4971L18.2085 23.0224H8.31908L6.86812 26.4971C6.33355 27.7189 5.30261 28.5208 3.81347 28.5208C2.17159 28.5208 0.796997 27.2226 0.796997 25.6952C0.796997 25.0461 0.987913 24.397 1.21701 23.8624C1.44611 23.3279 10.2282 3.73992 10.2282 3.73992C10.8773 2.13623 11.9083 1.41075 13.2447 1.41075C14.6193 1.41075 15.6121 2.13623 16.2994 3.73992L25.3106 23.8624C25.5397 24.397 25.7306 25.0461 25.7306 25.6952C25.7306 27.2226 24.356 28.5208 22.7141 28.5208ZM10.381 18.0968H16.1084L13.2447 11.3002L10.381 18.0968Z" fill="white"/>
<path d="M34.6905 25.5043C34.6905 27.1844 33.2777 28.5208 31.6358 28.5208C29.994 28.5208 28.5812 27.1844 28.5812 25.5043V4.12176C28.5812 2.4417 29.994 1.0671 31.6358 1.0671C33.2777 1.0671 34.6905 2.4417 34.6905 4.12176V25.5043Z" fill="white"/>
<path d="M41.6121 8.36009C43.254 8.36009 44.6667 9.73468 44.6667 11.4529V25.4661C44.6667 27.1844 43.254 28.559 41.6121 28.559C39.9702 28.559 38.5574 27.1844 38.5574 25.4661V11.4529C38.5574 9.73468 39.9702 8.36009 41.6121 8.36009ZM38.5193 3.70174C38.5193 2.05987 39.9702 0.685272 41.6121 0.685272C43.254 0.685272 44.7049 2.05987 44.7049 3.70174C44.7049 5.30543 43.254 6.68003 41.6121 6.68003C39.9702 6.68003 38.5193 5.30543 38.5193 3.70174Z" fill="white"/>
<path d="M57.9631 8.24554C62.316 8.24554 67.5853 11.7202 67.5853 17.4477C67.5853 19.8532 66.287 20.6551 63.8433 20.6551L54.1066 20.5405C54.6412 22.4878 56.2067 23.6333 58.6886 23.6333C59.8341 23.6333 60.025 23.4806 61.0941 23.2133C61.896 22.946 62.5451 22.6024 63.3088 22.6024C64.5688 22.6024 65.3325 23.4806 65.3325 24.6261C65.3325 25.3516 65.027 26.2298 63.8815 27.108C62.5833 27.9099 60.8269 28.5208 58.4213 28.5208C53.2284 28.5208 47.7682 25.4279 47.7682 18.4786C47.7682 11.5293 53.6102 8.24554 57.9631 8.24554ZM54.1066 16.4931H61.5905C61.2087 14.3167 59.7195 13.5148 57.9631 13.5148C56.1685 13.5148 54.4503 14.3167 54.1066 16.4931Z" fill="white"/>
<path d="M82.548 8.28372C86.519 8.28372 89.6501 11.0329 89.6501 17.7531V25.5043C89.6501 27.1844 88.2755 28.5208 86.5954 28.5208C84.9535 28.5208 83.5789 27.1844 83.5789 25.5043V17.7531C83.5789 14.7749 82.2043 13.4384 80.1806 13.4384C77.0496 13.4384 76.3623 16.6076 76.3623 17.0277V25.5043C76.3623 27.1844 74.9496 28.5208 73.3077 28.5208C71.6658 28.5208 70.253 27.1844 70.253 25.5043V11.4529C70.253 9.73468 71.6658 8.36009 73.3077 8.36009C74.9496 8.36009 76.3623 9.73468 76.3623 11.4529V12.6366C76.4769 11.2238 78.6533 8.28372 82.548 8.28372Z" fill="white"/>
<path d="M155.049 22.8697C156.576 22.8697 157.836 24.0915 157.836 25.5807C157.836 27.108 156.576 28.3299 155.049 28.3299H142.601C140.577 28.3299 139.126 26.8789 139.126 24.8552V5.07634C139.126 3.05263 140.577 1.60167 142.601 1.60167H154.667C156.194 1.60167 157.454 2.82354 157.454 4.27449C157.454 5.84 156.194 7.06187 154.667 7.06187H145.388V12.293H151.154C152.681 12.293 153.903 13.5148 153.903 14.8894C153.903 16.3404 152.681 17.524 151.154 17.524H145.388V22.8697H155.049Z" fill="white"/>
<path d="M172.993 8.28373C175.819 8.28373 178.224 9.69651 179.37 12.9039C180.401 10.5747 182.768 8.28373 186.281 8.28373C190.252 8.28373 193.421 11.0329 193.421 17.7531V25.5043C193.421 27.1844 192.008 28.5208 190.367 28.5208C188.725 28.5208 187.312 27.1844 187.312 25.5043V17.7531C187.312 14.7749 185.937 13.4385 183.952 13.4385C180.821 13.4385 180.095 16.6077 180.095 17.0277V16.9895V25.5043C180.095 27.1844 178.721 28.5208 177.041 28.5208C175.399 28.5208 174.024 27.1844 174.024 25.5043V17.7531C174.024 14.7749 172.65 13.4385 170.626 13.4385C167.495 13.4385 166.808 16.6077 166.808 17.0277V25.5043C166.808 27.1844 165.395 28.5208 163.753 28.5208C162.111 28.5208 160.698 27.1844 160.698 25.5043V11.4529C160.698 9.73469 162.111 8.36009 163.753 8.36009C165.395 8.36009 166.808 9.73469 166.808 11.4529V12.6366C166.922 11.2238 169.099 8.28373 172.993 8.28373Z" fill="white"/>
<path d="M206.807 8.24555C211.16 8.24555 217.116 11.682 217.116 18.4786C217.116 25.3134 211.16 28.5972 206.807 28.5972C202.416 28.5972 196.459 25.3134 196.459 18.4786C196.459 11.682 202.416 8.24555 206.807 8.24555ZM202.492 18.4786C202.492 21.3424 204.401 23.3279 206.807 23.3279C209.174 23.3279 211.121 21.3424 211.121 18.4786C211.121 15.5003 209.174 13.5148 206.807 13.5148C204.401 13.5148 202.492 15.5003 202.492 18.4786Z" fill="white"/>
<path d="M224.078 8.36009C225.72 8.36009 227.133 9.73469 227.133 11.4911V30.0481C227.133 33.7901 224.651 36.1574 220.756 36.1574C219.878 36.1574 218.771 36.0811 217.587 35.5847C216.556 35.0501 215.22 34.0573 215.22 32.4537C215.22 30.659 216.785 29.2463 218.618 29.7808C218.885 29.7808 219.229 30.2009 219.878 30.2009C221.176 30.2009 221.023 28.7117 221.023 28.2535V11.4911C221.023 9.73469 222.436 8.36009 224.078 8.36009Z" fill="white"/>
<path d="M234.1 8.36009C235.742 8.36009 237.155 9.73469 237.155 11.4529V25.4661C237.155 27.1844 235.742 28.559 234.1 28.559C232.458 28.559 231.046 27.1844 231.046 25.4661V11.4529C231.046 9.73469 232.458 8.36009 234.1 8.36009Z" fill="white"/>
<path d="M224.029 0.685278C222.387 0.685278 220.936 2.05987 220.936 3.70175C220.936 5.30544 222.387 6.68004 224.029 6.68004C225.67 6.68004 227.121 5.30544 227.121 3.70175C227.121 2.05987 225.67 0.685278 224.029 0.685278Z" fill="white"/>
<path d="M234.138 0.685272C232.497 0.685272 231.046 2.05987 231.046 3.70174C231.046 5.30543 232.497 6.68003 234.138 6.68003C235.78 6.68003 237.231 5.30543 237.231 3.70174C237.231 2.05987 235.78 0.685272 234.138 0.685272Z" fill="white"/>
</svg>
