<svg width="263" height="58" viewBox="0 0 263 58" fill="none" xmlns="http://www.w3.org/2000/svg">
<path d="M84.2426 49.5755C82.7534 49.5755 81.6843 48.7737 81.1879 47.5518L79.7369 44.0772H69.8475L68.3966 47.5518C67.862 48.7737 66.8311 49.5755 65.3419 49.5755C63.7 49.5755 62.3254 48.2773 62.3254 46.75C62.3254 46.1009 62.5164 45.4518 62.7455 44.9172C62.9746 44.3826 71.7567 24.7947 71.7567 24.7947C72.4058 23.191 73.4367 22.4655 74.7731 22.4655C76.1477 22.4655 77.1405 23.191 77.8278 24.7947L86.839 44.9172C87.0681 45.4518 87.259 46.1009 87.259 46.75C87.259 48.2773 85.8844 49.5755 84.2426 49.5755ZM71.9094 39.1515H77.6369L74.7731 32.3549L71.9094 39.1515Z" fill="white"/>
<path d="M96.2189 46.5591C96.2189 48.2391 94.8062 49.5755 93.1643 49.5755C91.5224 49.5755 90.1096 48.2391 90.1096 46.5591V25.1765C90.1096 23.4965 91.5224 22.1219 93.1643 22.1219C94.8062 22.1219 96.2189 23.4965 96.2189 25.1765V46.5591Z" fill="white"/>
<path d="M103.141 29.4148C104.782 29.4148 106.195 30.7894 106.195 32.5077V46.5209C106.195 48.2391 104.782 49.6137 103.141 49.6137C101.499 49.6137 100.086 48.2391 100.086 46.5209V32.5077C100.086 30.7894 101.499 29.4148 103.141 29.4148ZM100.048 24.7565C100.048 23.1146 101.499 21.74 103.141 21.74C104.782 21.74 106.233 23.1146 106.233 24.7565C106.233 26.3602 104.782 27.7348 103.141 27.7348C101.499 27.7348 100.048 26.3602 100.048 24.7565Z" fill="white"/>
<path d="M119.492 29.3003C123.844 29.3003 129.114 32.775 129.114 38.5024C129.114 40.908 127.815 41.7098 125.372 41.7098L115.635 41.5953C116.17 43.5426 117.735 44.6881 120.217 44.6881C121.363 44.6881 121.553 44.5354 122.623 44.2681C123.424 44.0008 124.074 43.6572 124.837 43.6572C126.097 43.6572 126.861 44.5354 126.861 45.6809C126.861 46.4063 126.555 47.2846 125.41 48.1628C124.112 48.9646 122.355 49.5755 119.95 49.5755C114.757 49.5755 109.297 46.4827 109.297 39.5334C109.297 32.584 115.139 29.3003 119.492 29.3003ZM115.635 37.5479H123.119C122.737 35.3714 121.248 34.5696 119.492 34.5696C117.697 34.5696 115.979 35.3714 115.635 37.5479Z" fill="white"/>
<path d="M144.076 29.3385C148.047 29.3385 151.178 32.0877 151.178 38.8079V46.5591C151.178 48.2391 149.804 49.5755 148.124 49.5755C146.482 49.5755 145.107 48.2391 145.107 46.5591V38.8079C145.107 35.8296 143.733 34.4932 141.709 34.4932C138.578 34.4932 137.891 37.6624 137.891 38.0824V46.5591C137.891 48.2391 136.478 49.5755 134.836 49.5755C133.194 49.5755 131.781 48.2391 131.781 46.5591V32.5077C131.781 30.7894 133.194 29.4148 134.836 29.4148C136.478 29.4148 137.891 30.7894 137.891 32.5077V33.6914C138.005 32.2786 140.182 29.3385 144.076 29.3385Z" fill="white"/>
<path d="M180.37 43.9244C181.897 43.9244 183.157 45.1463 183.157 46.6354C183.157 48.1628 181.897 49.3846 180.37 49.3846H167.922C165.898 49.3846 164.447 47.9337 164.447 45.91V26.1311C164.447 24.1074 165.898 22.6564 167.922 22.6564H179.988C181.515 22.6564 182.775 23.8783 182.775 25.3292C182.775 26.8948 181.515 28.1166 179.988 28.1166H170.709V33.3477H176.475C178.002 33.3477 179.224 34.5696 179.224 35.9442C179.224 37.3951 178.002 38.5788 176.475 38.5788H170.709V43.9244H180.37Z" fill="white"/>
<path d="M198.314 29.3385C201.14 29.3385 203.545 30.7513 204.691 33.9586C205.722 31.6295 208.089 29.3385 211.602 29.3385C215.573 29.3385 218.742 32.0877 218.742 38.8079V46.5591C218.742 48.2391 217.33 49.5755 215.688 49.5755C214.046 49.5755 212.633 48.2391 212.633 46.5591V38.8079C212.633 35.8296 211.258 34.4932 209.273 34.4932C206.142 34.4932 205.416 37.6624 205.416 38.0824V38.0442V46.5591C205.416 48.2391 204.042 49.5755 202.362 49.5755C200.72 49.5755 199.345 48.2391 199.345 46.5591V38.8079C199.345 35.8296 197.971 34.4932 195.947 34.4932C192.816 34.4932 192.129 37.6624 192.129 38.0824V46.5591C192.129 48.2391 190.716 49.5755 189.074 49.5755C187.432 49.5755 186.019 48.2391 186.019 46.5591V32.5077C186.019 30.7894 187.432 29.4148 189.074 29.4148C190.716 29.4148 192.129 30.7894 192.129 32.5077V33.6914C192.243 32.2786 194.42 29.3385 198.314 29.3385Z" fill="white"/>
<path d="M232.128 29.3003C236.481 29.3003 242.437 32.7368 242.437 39.5334C242.437 46.3682 236.481 49.6519 232.128 49.6519C227.737 49.6519 221.78 46.3682 221.78 39.5334C221.78 32.7368 227.737 29.3003 232.128 29.3003ZM227.813 39.5334C227.813 42.3971 229.722 44.3826 232.128 44.3826C234.495 44.3826 236.443 42.3971 236.443 39.5334C236.443 36.5551 234.495 34.5696 232.128 34.5696C229.722 34.5696 227.813 36.5551 227.813 39.5334Z" fill="white"/>
<path d="M249.399 29.4148C251.041 29.4148 252.454 30.7894 252.454 32.5459V51.1029C252.454 54.8448 249.972 57.2122 246.077 57.2122C245.199 57.2122 244.092 57.1358 242.908 56.6394C241.877 56.1049 240.541 55.1121 240.541 53.5084C240.541 51.7138 242.106 50.301 243.939 50.8356C244.206 50.8356 244.55 51.2556 245.199 51.2556C246.497 51.2556 246.345 49.7665 246.345 49.3083V32.5459C246.345 30.7894 247.757 29.4148 249.399 29.4148Z" fill="white"/>
<path d="M259.421 29.4148C261.063 29.4148 262.476 30.7894 262.476 32.5077V46.5209C262.476 48.2391 261.063 49.6137 259.421 49.6137C257.78 49.6137 256.367 48.2391 256.367 46.5209V32.5077C256.367 30.7894 257.78 29.4148 259.421 29.4148Z" fill="white"/>
<path d="M249.35 21.74C247.708 21.74 246.257 23.1146 246.257 24.7565C246.257 26.3602 247.708 27.7348 249.35 27.7348C250.992 27.7348 252.443 26.3602 252.443 24.7565C252.443 23.1146 250.992 21.74 249.35 21.74Z" fill="white"/>
<path d="M259.46 21.74C257.818 21.74 256.367 23.1146 256.367 24.7565C256.367 26.3602 257.818 27.7348 259.46 27.7348C261.101 27.7348 262.552 26.3602 262.552 24.7565C262.552 23.1146 261.101 21.74 259.46 21.74Z" fill="white"/>
<path fill-rule="evenodd" clip-rule="evenodd" d="M13.1136 21.9335C11.61 22.4861 10.9447 23.6718 10.936 25.814C10.9152 30.8796 15.2529 36.603 20.4695 38.3934C25.0419 39.9626 27.9732 38.6666 28.1498 34.9979C28.3744 30.3263 24.3089 24.8047 19.0681 22.6634C17.0247 21.8285 14.306 21.4952 13.1136 21.9335Z" fill="white"/>
<path fill-rule="evenodd" clip-rule="evenodd" d="M44.7163 22.0652C41.0802 22.8775 37.4494 25.5646 35.355 28.9933C33.8011 31.5374 33.1414 34.6027 33.7384 36.506C34.0217 37.4096 34.8544 38.3534 35.7179 38.7496C36.3041 39.0189 36.5782 39.0569 37.8554 39.0471C40.1899 39.0291 42.1214 38.3728 44.3628 36.8361C47.7843 34.4901 50.2429 30.6312 50.7333 26.837C51.0129 24.6725 50.4715 23.1213 49.1421 22.2787C48.5627 21.9115 48.419 21.8804 47.1675 21.8509C46.2229 21.8286 45.487 21.893 44.7163 22.0652Z" fill="white"/>
</svg>
