<svg width="237" height="44" viewBox="0 0 237 44" fill="none" xmlns="http://www.w3.org/2000/svg">
<path d="M112.144 11.733C112.789 11.6415 114.098 11.6256 114.736 11.7018C119.343 12.2519 123.069 15.956 123.946 20.858C124.073 21.5655 124.072 23.3938 123.944 24.1881C123.614 26.2469 122.741 28.2697 121.343 30.2125C119.343 32.9913 117.034 34.683 114.659 35.11C114.063 35.2172 112.783 35.1867 112.191 35.0514C109.892 34.5256 107.726 32.8812 105.81 30.2037C103.957 27.6156 102.998 24.7348 103.11 22.0993C103.223 19.4623 104.279 16.9642 106.133 14.9518C107.782 13.1616 109.84 12.0599 112.144 11.733ZM113.629 31.2057C111.721 31.2057 110.887 30.0618 110.602 30.4577C110.316 30.8537 111.721 31.8102 113.629 31.8102C115.536 31.8102 116.925 30.8586 116.559 30.4577C116.235 30.1046 115.537 31.2057 113.629 31.2057ZM112.346 8.05043C114.564 7.84657 117.092 8.26588 119.293 9.20277C122.074 10.3864 124.421 12.5355 125.718 15.0846C126.366 16.3586 126.962 18.3108 127.074 19.526C127.094 19.7368 127.124 19.9315 127.142 19.9586C127.16 19.9857 127.288 20.0774 127.428 20.1618C128.225 20.6439 128.785 21.601 128.983 22.82C129.054 23.2549 129.058 23.4214 129.008 23.8903C128.758 26.2488 126.92 27.9303 124.593 27.9303C124.053 27.9303 123.812 27.8533 123.677 27.6383C123.591 27.5019 123.596 27.4819 123.849 26.8141C124.369 25.4407 124.56 24.4527 124.614 22.8473C124.649 21.8249 124.597 21.2331 124.388 20.233C124.262 19.6314 124.261 19.5967 124.345 19.4625C124.46 19.279 124.718 19.1697 125.039 19.1696H125.062C125.166 19.1697 125.232 19.1697 125.265 19.1354C125.32 19.077 125.284 18.9197 125.186 18.4977L125.173 18.444C124.522 15.6444 122.79 13.2347 120.315 11.6901C117.773 10.1027 114.556 9.50242 111.319 10.0104C109.054 10.3659 106.858 11.4318 105.146 13.0055C103.544 14.4797 102.364 16.5618 101.915 18.7116L101.819 19.1696H102.099C102.434 19.1696 102.697 19.2746 102.81 19.4537C102.887 19.5766 102.884 19.6325 102.766 20.2516C102.561 21.3268 102.511 21.9037 102.546 22.7946C102.607 24.3255 102.867 25.5603 103.484 27.2418C103.563 27.4553 103.567 27.5151 103.511 27.6246C103.396 27.8486 103.146 27.9303 102.576 27.9303C100.496 27.9301 98.7713 26.6061 98.2539 24.6129C98.1125 24.0683 98.1013 23.0304 98.2305 22.4752C98.4344 21.5992 99.0989 20.6114 99.7383 20.234C100.028 20.0632 100.035 20.048 100.089 19.5299C100.14 19.0411 100.356 18.0121 100.53 17.4235C101.518 14.0982 103.508 11.5734 106.516 9.83168C108.19 8.86191 110.202 8.24754 112.346 8.05043ZM108.466 20.943C107.642 20.6011 106.545 20.4639 106.063 20.6432C105.457 20.8696 105.188 21.3556 105.185 22.233C105.176 24.3082 106.927 26.653 109.031 27.3864C110.876 28.029 112.058 27.4983 112.13 25.9957C112.22 24.0822 110.58 21.8203 108.466 20.943ZM120.523 20.5817C120.142 20.5725 119.845 20.5991 119.534 20.6696C118.067 21.0023 116.603 22.1032 115.758 23.5075C115.131 24.5496 114.865 25.8059 115.105 26.5856C115.22 26.9555 115.555 27.3421 115.903 27.5045C116.14 27.6148 116.251 27.6306 116.767 27.6266C117.708 27.6192 118.487 27.3498 119.392 26.7203C120.772 25.7593 121.764 24.1788 121.962 22.6246C122.075 21.738 121.856 21.1026 121.319 20.7575C121.086 20.6072 121.028 20.5938 120.523 20.5817Z" fill="white"/>
<path d="M21.9171 35.8355C20.428 35.8355 19.3589 35.0337 18.8625 33.8118L17.4115 30.3371H7.52208L6.07112 33.8118C5.53656 35.0337 4.50561 35.8355 3.01647 35.8355C1.37459 35.8355 0 34.5373 0 33.01C0 32.3608 0.190916 31.7117 0.420015 31.1772C0.649114 30.6426 9.43124 11.0546 9.43124 11.0546C10.0803 9.45096 11.1113 8.72548 12.4477 8.72548C13.8223 8.72548 14.8151 9.45096 15.5024 11.0546L24.5136 31.1772C24.7427 31.7117 24.9336 32.3608 24.9336 33.01C24.9336 34.5373 23.559 35.8355 21.9171 35.8355ZM9.58397 25.4115H15.3114L12.4477 18.6149L9.58397 25.4115Z" fill="white"/>
<path d="M33.8935 32.819C33.8935 34.4991 32.4807 35.8355 30.8389 35.8355C29.197 35.8355 27.7842 34.4991 27.7842 32.819V11.4365C27.7842 9.75643 29.197 8.38183 30.8389 8.38183C32.4807 8.38183 33.8935 9.75643 33.8935 11.4365V32.819Z" fill="white"/>
<path d="M40.8151 15.6748C42.457 15.6748 43.8697 17.0494 43.8697 18.7677V32.7809C43.8697 34.4991 42.457 35.8737 40.8151 35.8737C39.1732 35.8737 37.7604 34.4991 37.7604 32.7809V18.7677C37.7604 17.0494 39.1732 15.6748 40.8151 15.6748ZM37.7223 11.0165C37.7223 9.37459 39.1732 8 40.8151 8C42.457 8 43.9079 9.37459 43.9079 11.0165C43.9079 12.6202 42.457 13.9948 40.8151 13.9948C39.1732 13.9948 37.7223 12.6202 37.7223 11.0165Z" fill="white"/>
<path d="M57.1661 15.5603C61.519 15.5603 66.7883 19.0349 66.7883 24.7624C66.7883 27.1679 65.49 27.9698 63.0463 27.9698L53.3096 27.8552C53.8442 29.8026 55.4097 30.9481 57.8916 30.9481C59.0371 30.9481 59.228 30.7953 60.2971 30.5281C61.099 30.2608 61.7481 29.9171 62.5118 29.9171C63.7718 29.9171 64.5355 30.7953 64.5355 31.9408C64.5355 32.6663 64.23 33.5445 63.0845 34.4227C61.7863 35.2246 60.0299 35.8355 57.6243 35.8355C52.4314 35.8355 46.9712 32.7427 46.9712 25.7933C46.9712 18.844 52.8132 15.5603 57.1661 15.5603ZM53.3096 23.8078H60.7935C60.4117 21.6314 58.9225 20.8295 57.1661 20.8295C55.3715 20.8295 53.6533 21.6314 53.3096 23.8078Z" fill="white"/>
<path d="M81.751 15.5984C85.722 15.5984 88.8531 18.3476 88.8531 25.0679V32.819C88.8531 34.4991 87.4785 35.8355 85.7984 35.8355C84.1565 35.8355 82.7819 34.4991 82.7819 32.819V25.0679C82.7819 22.0896 81.4073 20.7532 79.3836 20.7532C76.2526 20.7532 75.5653 23.9224 75.5653 24.3424V32.819C75.5653 34.4991 74.1526 35.8355 72.5107 35.8355C70.8688 35.8355 69.456 34.4991 69.456 32.819V18.7677C69.456 17.0494 70.8688 15.6748 72.5107 15.6748C74.1526 15.6748 75.5653 17.0494 75.5653 18.7677V19.9513C75.6799 18.5386 77.8563 15.5984 81.751 15.5984Z" fill="white"/>
<path d="M154.252 30.1844C155.779 30.1844 157.039 31.4063 157.039 32.8954C157.039 34.4227 155.779 35.6446 154.252 35.6446H141.804C139.78 35.6446 138.329 34.1936 138.329 32.1699V12.3911C138.329 10.3674 139.78 8.9164 141.804 8.9164H153.87C155.397 8.9164 156.657 10.1383 156.657 11.5892C156.657 13.1547 155.397 14.3766 153.87 14.3766H144.591V19.6077H150.357C151.884 19.6077 153.106 20.8295 153.106 22.2041C153.106 23.6551 151.884 24.8388 150.357 24.8388H144.591V30.1844H154.252Z" fill="white"/>
<path d="M172.196 15.5985C175.022 15.5985 177.427 17.0112 178.573 20.2186C179.604 17.8894 181.971 15.5985 185.484 15.5985C189.455 15.5985 192.624 18.3476 192.624 25.0679V32.8191C192.624 34.4991 191.211 35.8355 189.57 35.8355C187.928 35.8355 186.515 34.4991 186.515 32.8191V25.0679C186.515 22.0896 185.14 20.7532 183.155 20.7532C180.024 20.7532 179.298 23.9224 179.298 24.3424V24.3042V32.8191C179.298 34.4991 177.924 35.8355 176.244 35.8355C174.602 35.8355 173.227 34.4991 173.227 32.8191V25.0679C173.227 22.0896 171.853 20.7532 169.829 20.7532C166.698 20.7532 166.011 23.9224 166.011 24.3424V32.8191C166.011 34.4991 164.598 35.8355 162.956 35.8355C161.314 35.8355 159.901 34.4991 159.901 32.8191V18.7677C159.901 17.0494 161.314 15.6748 162.956 15.6748C164.598 15.6748 166.011 17.0494 166.011 18.7677V19.9513C166.125 18.5386 168.302 15.5985 172.196 15.5985Z" fill="white"/>
<path d="M206.01 15.5603C210.363 15.5603 216.319 18.9968 216.319 25.7934C216.319 32.6281 210.363 35.9119 206.01 35.9119C201.619 35.9119 195.662 32.6281 195.662 25.7934C195.662 18.9968 201.619 15.5603 206.01 15.5603ZM201.695 25.7934C201.695 28.6571 203.604 30.6426 206.01 30.6426C208.377 30.6426 210.324 28.6571 210.324 25.7934C210.324 22.8151 208.377 20.8295 206.01 20.8295C203.604 20.8295 201.695 22.8151 201.695 25.7934Z" fill="white"/>
<path d="M223.281 15.6748C224.923 15.6748 226.336 17.0494 226.336 18.8058V37.3628C226.336 41.1048 223.854 43.4721 219.959 43.4721C219.081 43.4721 217.974 43.3958 216.79 42.8994C215.759 42.3648 214.423 41.3721 214.423 39.7684C214.423 37.9738 215.988 36.561 217.821 37.0956C218.088 37.0956 218.432 37.5156 219.081 37.5156C220.379 37.5156 220.226 36.0264 220.226 35.5682V18.8058C220.226 17.0494 221.639 15.6748 223.281 15.6748Z" fill="white"/>
<path d="M233.303 15.6748C234.945 15.6748 236.358 17.0494 236.358 18.7677V32.7809C236.358 34.4991 234.945 35.8737 233.303 35.8737C231.661 35.8737 230.249 34.4991 230.249 32.7809V18.7677C230.249 17.0494 231.661 15.6748 233.303 15.6748Z" fill="white"/>
<path d="M223.232 8.00001C221.59 8.00001 220.139 9.3746 220.139 11.0165C220.139 12.6202 221.59 13.9948 223.232 13.9948C224.873 13.9948 226.324 12.6202 226.324 11.0165C226.324 9.3746 224.873 8.00001 223.232 8.00001Z" fill="white"/>
<path d="M233.341 8C231.7 8 230.249 9.37459 230.249 11.0165C230.249 12.6202 231.7 13.9948 233.341 13.9948C234.983 13.9948 236.434 12.6202 236.434 11.0165C236.434 9.37459 234.983 8 233.341 8Z" fill="white"/>
</svg>
