<svg width="263" height="58" viewBox="0 0 263 58" fill="none" xmlns="http://www.w3.org/2000/svg">
<path d="M84.1141 49.5291C82.625 49.5291 81.5559 48.7273 81.0595 47.5054L79.6085 44.0308H69.7191L68.2681 47.5054C67.7336 48.7273 66.7026 49.5291 65.2135 49.5291C63.5716 49.5291 62.197 48.2309 62.197 46.7036C62.197 46.0545 62.3879 45.4053 62.617 44.8708C62.8461 44.3362 71.6283 24.7483 71.6283 24.7483C72.2774 23.1446 73.3083 22.4191 74.6447 22.4191C76.0193 22.4191 77.0121 23.1446 77.6994 24.7483L86.7106 44.8708C86.9397 45.4053 87.1306 46.0545 87.1306 46.7036C87.1306 48.2309 85.756 49.5291 84.1141 49.5291ZM71.781 39.1051H77.5085L74.6447 32.3085L71.781 39.1051Z" fill="#CCFF00"/>
<path d="M96.0905 46.5127C96.0905 48.1927 94.6777 49.5291 93.0359 49.5291C91.394 49.5291 89.9812 48.1927 89.9812 46.5127V25.1301C89.9812 23.45 91.394 22.0754 93.0359 22.0754C94.6777 22.0754 96.0905 23.45 96.0905 25.1301V46.5127Z" fill="#CCFF00"/>
<path d="M103.012 29.3684C104.654 29.3684 106.067 30.743 106.067 32.4613V46.4745C106.067 48.1927 104.654 49.5673 103.012 49.5673C101.37 49.5673 99.9575 48.1927 99.9575 46.4745V32.4613C99.9575 30.743 101.37 29.3684 103.012 29.3684ZM99.9193 24.7101C99.9193 23.0682 101.37 21.6936 103.012 21.6936C104.654 21.6936 106.105 23.0682 106.105 24.7101C106.105 26.3138 104.654 27.6884 103.012 27.6884C101.37 27.6884 99.9193 26.3138 99.9193 24.7101Z" fill="#CCFF00"/>
<path d="M119.363 29.2539C123.716 29.2539 128.985 32.7285 128.985 38.456C128.985 40.8615 127.687 41.6634 125.243 41.6634L115.507 41.5488C116.041 43.4962 117.607 44.6417 120.089 44.6417C121.234 44.6417 121.425 44.4889 122.494 44.2217C123.296 43.9544 123.945 43.6107 124.709 43.6107C125.969 43.6107 126.732 44.4889 126.732 45.6344C126.732 46.3599 126.427 47.2381 125.282 48.1164C123.983 48.9182 122.227 49.5291 119.821 49.5291C114.628 49.5291 109.168 46.4363 109.168 39.487C109.168 32.5376 115.01 29.2539 119.363 29.2539ZM115.507 37.5014H122.991C122.609 35.325 121.12 34.5232 119.363 34.5232C117.569 34.5232 115.85 35.325 115.507 37.5014Z" fill="#CCFF00"/>
<path d="M143.948 29.2921C147.919 29.2921 151.05 32.0412 151.05 38.7615V46.5127C151.05 48.1927 149.675 49.5291 147.995 49.5291C146.354 49.5291 144.979 48.1927 144.979 46.5127V38.7615C144.979 35.7832 143.604 34.4468 141.581 34.4468C138.45 34.4468 137.762 37.616 137.762 38.036V46.5127C137.762 48.1927 136.35 49.5291 134.708 49.5291C133.066 49.5291 131.653 48.1927 131.653 46.5127V32.4613C131.653 30.743 133.066 29.3684 134.708 29.3684C136.35 29.3684 137.762 30.743 137.762 32.4613V33.6449C137.877 32.2322 140.053 29.2921 143.948 29.2921Z" fill="#CCFF00"/>
<path d="M180.241 43.878C181.769 43.878 183.029 45.0999 183.029 46.589C183.029 48.1163 181.769 49.3382 180.241 49.3382H167.794C165.77 49.3382 164.319 47.8872 164.319 45.8635V26.0847C164.319 24.061 165.77 22.61 167.794 22.61H179.86C181.387 22.61 182.647 23.8319 182.647 25.2828C182.647 26.8483 181.387 28.0702 179.86 28.0702H170.581V33.3013H176.347C177.874 33.3013 179.096 34.5232 179.096 35.8977C179.096 37.3487 177.874 38.5324 176.347 38.5324H170.581V43.878H180.241Z" fill="#CCFF00"/>
<path d="M198.186 29.2921C201.012 29.2921 203.417 30.7048 204.563 33.9122C205.593 31.5831 207.961 29.2921 211.474 29.2921C215.445 29.2921 218.614 32.0412 218.614 38.7615V46.5127C218.614 48.1927 217.201 49.5291 215.559 49.5291C213.917 49.5291 212.505 48.1927 212.505 46.5127V38.7615C212.505 35.7832 211.13 34.4468 209.145 34.4468C206.014 34.4468 205.288 37.616 205.288 38.036V37.9978V46.5127C205.288 48.1927 203.913 49.5291 202.233 49.5291C200.592 49.5291 199.217 48.1927 199.217 46.5127V38.7615C199.217 35.7832 197.842 34.4468 195.819 34.4468C192.688 34.4468 192 37.616 192 38.036V46.5127C192 48.1927 190.588 49.5291 188.946 49.5291C187.304 49.5291 185.891 48.1927 185.891 46.5127V32.4613C185.891 30.743 187.304 29.3684 188.946 29.3684C190.588 29.3684 192 30.743 192 32.4613V33.6449C192.115 32.2322 194.291 29.2921 198.186 29.2921Z" fill="#CCFF00"/>
<path d="M232 29.2539C236.352 29.2539 242.309 32.6904 242.309 39.487C242.309 46.3217 236.352 49.6055 232 49.6055C227.608 49.6055 221.652 46.3217 221.652 39.487C221.652 32.6904 227.608 29.2539 232 29.2539ZM227.685 39.487C227.685 42.3507 229.594 44.3362 232 44.3362C234.367 44.3362 236.314 42.3507 236.314 39.487C236.314 36.5087 234.367 34.5232 232 34.5232C229.594 34.5232 227.685 36.5087 227.685 39.487Z" fill="#CCFF00"/>
<path d="M249.271 29.3684C250.913 29.3684 252.325 30.743 252.325 32.4994V51.0565C252.325 54.7984 249.844 57.1657 245.949 57.1657C245.071 57.1657 243.963 57.0894 242.78 56.593C241.749 56.0584 240.412 55.0657 240.412 53.462C240.412 51.6674 241.978 50.2546 243.811 50.7892C244.078 50.7892 244.422 51.2092 245.071 51.2092C246.369 51.2092 246.216 49.72 246.216 49.2618V32.4994C246.216 30.743 247.629 29.3684 249.271 29.3684Z" fill="#CCFF00"/>
<path d="M259.293 29.3684C260.935 29.3684 262.348 30.743 262.348 32.4613V46.4745C262.348 48.1927 260.935 49.5673 259.293 49.5673C257.651 49.5673 256.238 48.1927 256.238 46.4745V32.4613C256.238 30.743 257.651 29.3684 259.293 29.3684Z" fill="#CCFF00"/>
<path d="M249.221 21.6936C247.579 21.6936 246.128 23.0682 246.128 24.7101C246.128 26.3138 247.579 27.6884 249.221 27.6884C250.863 27.6884 252.314 26.3138 252.314 24.7101C252.314 23.0682 250.863 21.6936 249.221 21.6936Z" fill="#CCFF00"/>
<path d="M259.331 21.6936C257.689 21.6936 256.238 23.0682 256.238 24.7101C256.238 26.3138 257.689 27.6884 259.331 27.6884C260.973 27.6884 262.424 26.3138 262.424 24.7101C262.424 23.0682 260.973 21.6936 259.331 21.6936Z" fill="#CCFF00"/>
<path fill-rule="evenodd" clip-rule="evenodd" d="M12.9851 21.887C11.4816 22.4397 10.8162 23.6253 10.8076 25.7675C10.7868 30.8331 15.1245 36.5566 20.3411 38.3469C24.9135 39.9162 27.8448 38.6202 28.0213 34.9515C28.2459 30.2799 24.1805 24.7582 18.9397 22.6169C16.8963 21.7821 14.1776 21.4487 12.9851 21.887Z" fill="#CCFF00"/>
<path fill-rule="evenodd" clip-rule="evenodd" d="M44.5879 22.0187C40.9518 22.8311 37.321 25.5182 35.2266 28.9468C33.6727 31.4909 33.013 34.5563 33.61 36.4596C33.8933 37.3632 34.726 38.307 35.5894 38.7032C36.1757 38.9724 36.4497 39.0105 37.727 39.0007C40.0615 38.9827 41.993 38.3264 44.2343 36.7897C47.6559 34.4437 50.1145 30.5847 50.6049 26.7906C50.8845 24.6261 50.3431 23.0749 49.0137 22.2323C48.4343 21.8651 48.2906 21.834 47.0391 21.8045C46.0944 21.7822 45.3586 21.8466 44.5879 22.0187Z" fill="#CCFF00"/>
</svg>
